<svg width="922" height="140" viewBox="0 0 922 140" fill="none" xmlns="http://www.w3.org/2000/svg">
<path d="M24.0074 12.0893V34.8254H50.3613V41.0799H24.0074V87.0042C24.0074 97.2203 26.199 104.379 38.2857 104.379C42.4364 104.218 46.5095 103.173 50.2064 101.322L52.8739 107.426C48.369 109.751 43.3772 111.054 38.2857 111.237C21.8048 111.237 16.4809 101.763 16.4809 86.9719V41.0476H0V34.7931H16.4698V12.8321L23.9964 12.0893H24.0074Z" fill="white"/>
<path d="M69.9525 3.38028V48.8524C75.6748 39.1853 86.4112 33.3721 97.8781 33.7488C119.528 33.7488 130.364 47.3237 130.364 67.0133V110.192H122.837V67.0133C122.837 51.4468 115.311 40.9185 97.8892 40.9185C82.7918 40.757 70.4173 52.5233 70.2402 67.207C70.2402 67.7561 70.2402 68.2943 70.2734 68.8433V110.192H62.603V3.38028H69.9635H69.9525Z" fill="white"/>
<path d="M140.547 72.5143C139.982 51.5868 156.961 34.1687 178.478 33.6089C178.965 33.5981 179.441 33.5981 179.928 33.5981C201.733 33.5981 221.191 46.5702 218.203 76.0237H148.383C149.335 92.1177 163.348 104.53 179.917 103.949C190.111 103.949 202.032 99.9978 207.843 92.4944L213.333 96.7682C205.009 106.242 192.735 111.57 179.917 111.258C158.943 112.022 141.3 96.1008 140.514 75.69C140.469 74.635 140.481 73.5693 140.536 72.5035L140.547 72.5143ZM211.307 69.457C211.152 50.844 198.601 40.4663 179.928 40.4663C163.049 40.1541 149.025 53.0508 148.394 69.457H211.307Z" fill="white"/>
<path d="M604.192 3.38028V51.2961C610.446 39.8097 622.998 32.8984 636.346 33.5981C657.996 33.5981 675.252 47.6359 675.252 72.5143C675.252 97.3926 658.151 111.43 636.501 111.43C623.186 111.656 610.8 104.821 604.181 93.571V110.203H596.655V3.38028H604.181H604.192ZM604.347 72.3528C603.44 88.9742 616.556 103.163 633.645 104.056C634.431 104.099 635.228 104.11 636.025 104.089C653.436 104.089 667.692 93.431 667.692 72.4927C667.692 51.5545 653.414 40.757 636.025 40.757C618.891 40.391 604.701 53.6106 604.325 70.2751C604.314 70.9748 604.325 71.6638 604.358 72.3636L604.347 72.3528Z" fill="white"/>
<path d="M763.102 34.8254V110.203H755.409V94.1846C748.79 105.036 736.703 111.613 723.742 111.43C701.738 111.129 684.139 93.5279 684.449 72.1267C684.748 51.1454 702.17 34.2118 723.742 33.9103C736.803 33.5335 749 40.2187 755.409 51.2853V34.8038L763.102 34.8254ZM692.042 72.5143C691.29 89.2111 704.594 103.346 721.772 104.089C722.414 104.121 723.067 104.121 723.72 104.11C766.865 104.11 766.865 41.0907 723.72 41.0907C706.608 40.7032 692.408 53.869 692.009 70.5119C691.998 71.1794 692.009 71.8468 692.031 72.5143H692.053H692.042Z" fill="white"/>
<path d="M786.002 34.8254V48.2496C791.725 38.7762 802.317 33.0922 813.618 33.4474C834.327 33.4474 848.605 45.8059 848.605 66.7118V110.203H840.913V66.8626C840.913 49.7674 830.088 40.617 813.297 40.7678C798.421 40.6386 786.257 52.2542 786.124 66.7226C786.124 67.2286 786.124 67.7345 786.157 68.2297V110.192H778.465V34.8254H786.002Z" fill="white"/>
<path d="M870.709 3.38028V67.7561L907.257 34.8038H917.451V35.116L878.224 70.3612L922 109.729V110.192H912.26L870.687 73.2678V110.192H863.16V3.38028H870.72H870.709Z" fill="white"/>
<path d="M244.07 139.011V136.416C246.538 135.458 248.542 134.037 250.069 132.164C251.596 130.291 252.371 127.384 252.371 123.444V59.9943C252.371 56.0543 251.707 53.0723 250.368 51.0592C249.029 49.0354 246.837 47.6036 243.771 46.7316V43.9973C247.224 43.6097 250.589 42.8885 253.854 41.8335C257.12 40.7785 260.208 39.4544 263.119 37.8719C266.03 36.2894 268.575 34.6316 270.756 32.8984H272.981V41.123C272.981 41.9842 272.958 42.8777 272.903 43.7927C272.848 44.7078 272.826 45.5905 272.826 46.4625L273.125 46.6024C275.006 44.5786 277.275 42.587 279.943 40.617C282.61 38.647 285.554 37.0107 288.764 35.7189C291.974 34.4163 295.261 33.7704 298.626 33.7704C303.862 33.7704 308.632 35.2129 312.938 38.098C317.232 40.983 320.697 44.9231 323.32 49.9181C325.932 54.9132 327.249 60.5864 327.249 66.9379C327.249 72.9018 326.209 78.5643 324.139 83.9469C322.058 89.3294 319.147 94.0877 315.395 98.2215C311.643 102.355 307.138 105.596 301.902 107.953C296.667 110.311 290.934 111.484 284.702 111.484C282.333 111.484 280.23 111.269 278.404 110.838C276.578 110.408 274.818 109.902 273.136 109.32V123.455C273.136 127.395 273.955 130.28 275.582 132.11C277.209 133.94 279.312 135.372 281.88 136.438V139.032H244.07V139.011ZM305.599 74.129C305.599 65.2908 303.939 58.4119 300.63 53.5137C297.32 48.6155 292.649 46.1611 286.617 46.1611C284.337 46.1611 282.046 46.7101 279.721 47.8189C277.397 48.9277 275.205 50.338 273.125 52.0712V93.8831C273.125 97.0588 274.087 99.6748 276.013 101.742C277.939 103.809 280.585 104.842 283.949 104.842C288.299 104.842 292.129 103.453 295.438 100.665C298.748 97.877 301.294 94.1523 303.076 89.4909C304.858 84.8296 305.699 79.7161 305.599 74.1398V74.129Z" fill="white"/>
<path d="M358.772 41.1122C358.772 42.4579 358.695 43.8251 358.551 45.2245C358.407 46.624 358.274 47.7005 358.185 48.4648L358.783 48.7555C360.167 46.258 361.971 43.8789 364.196 41.6182C366.42 39.3575 368.889 37.4844 371.611 35.9988C374.334 34.5132 377.024 33.7596 379.691 33.7596C382.658 33.7596 385.248 34.7931 387.472 36.86C389.697 38.9269 390.804 41.5428 390.804 44.7186C390.804 47.8943 389.786 50.3918 387.76 52.2219C385.735 54.052 383.587 54.9563 381.307 54.9563C379.525 54.9563 378.02 54.6225 376.791 53.9443C375.552 53.2769 374.423 52.5233 373.382 51.7052C372.342 50.887 371.279 50.1442 370.195 49.466C369.11 48.7986 367.87 48.4541 366.487 48.4541C365.103 48.4541 363.764 49.0354 362.48 50.1873C361.196 51.3392 359.956 52.5879 358.772 53.9336V94.5936C358.772 97.5756 359.591 100.148 361.218 102.312C362.845 104.476 365.004 106.231 367.671 107.576V110.171H329.12V107.576C331.986 106.231 334.189 104.476 335.716 102.312C337.244 100.148 338.019 97.5756 338.019 94.5936V59.9836C338.019 56.0435 337.321 53.0616 335.938 51.0485C334.554 49.0246 332.285 47.5929 329.12 46.7209V43.9865C332.484 43.599 335.816 42.8777 339.126 41.8227C342.435 40.7677 345.545 39.4436 348.467 37.8611C351.378 36.2787 353.88 34.6208 355.95 32.8876H358.761V41.1122H358.772Z" fill="white"/>
<path d="M391.856 110.182V107.587C394.623 106.629 396.792 105.036 398.375 102.829C399.958 100.622 400.743 97.877 400.743 94.6044V59.9943C400.743 57.0124 400.201 54.278 399.116 51.7805C398.032 49.283 395.608 47.6036 391.856 46.7316V43.9973C395.22 43.6097 398.574 42.8885 401.939 41.8335C405.304 40.7785 408.491 39.4544 411.502 37.8719C414.513 36.2894 417.058 34.6316 419.139 32.8984H421.807V94.6152C421.807 97.8878 422.57 100.654 424.109 102.904C425.636 105.165 427.64 106.726 430.108 107.587V110.182H391.856ZM410.085 24.2324C407.717 24.2324 405.569 23.6834 403.632 22.5746C401.706 21.4658 400.201 20.0017 399.105 18.1716C398.021 16.3415 397.478 14.3285 397.478 12.1108C397.478 9.8932 398.021 7.74016 399.105 5.91008C400.19 4.08 401.695 2.63747 403.632 1.58248C405.558 0.527494 407.706 0 410.085 0C412.465 0 414.579 0.527494 416.461 1.58248C418.342 2.63747 419.848 4.08 420.988 5.91008C422.128 7.74016 422.692 9.80708 422.692 12.1108C422.692 14.4146 422.128 16.3415 420.988 18.1716C419.848 20.0017 418.342 21.4658 416.461 22.5746C414.579 23.6834 412.454 24.2324 410.085 24.2324Z" fill="white"/>
<path d="M433.097 107.576C435.864 106.425 438.033 104.767 439.616 102.603C441.199 100.439 441.984 97.7694 441.984 94.6044V59.9944C441.984 56.0543 441.32 53.0508 439.981 50.9839C438.642 48.917 436.351 47.4529 433.085 46.5809V43.9865C436.45 43.599 439.782 42.8777 443.091 41.8227C446.401 40.7677 449.544 39.4436 452.511 37.8611C455.477 36.2787 458 34.6208 460.07 32.8876H462.738V41.1122C462.738 42.7485 462.716 44.4064 462.66 46.0857C462.605 47.7651 462.483 49.0892 462.295 50.0473L462.738 50.1873C465.206 47.6898 468.349 45.1922 472.157 42.6839C475.965 40.1864 480.016 38.0657 484.31 36.3433C488.605 34.6208 492.634 33.7488 496.397 33.7488C501.533 33.7488 505.44 35.2667 508.107 38.2918C510.775 41.3168 512.114 45.3322 512.114 50.3272V94.5936C512.114 97.7694 512.778 100.461 514.117 102.668C515.457 104.874 517.349 106.511 519.829 107.566V110.16H483.059V107.566C485.826 105.929 487.952 104.153 489.435 102.226C490.918 100.299 491.66 97.7586 491.66 94.5829V57.6691C491.66 54.2135 491.04 51.6083 489.811 49.8859C488.571 48.1527 486.524 47.2484 483.657 47.1515C481.089 47.0546 478.045 47.7113 474.537 49.1C471.028 50.4995 467.099 52.5341 462.749 55.2254V94.5936C462.749 97.7694 463.535 100.31 465.117 102.237C466.7 104.164 468.77 105.94 471.349 107.576V110.171H433.097V107.576Z" fill="white"/>
<path d="M528.872 96.3376V42.4041H516.265V40.6709C522.884 36.8277 528.672 32.4786 533.609 27.6235C538.545 22.7684 543.294 17.558 547.843 11.9817H550.212V35.9234H572.448V42.4148H550.212V92.3114C550.212 95.2934 551.075 97.5756 552.802 99.1581C554.528 100.741 556.775 101.537 559.542 101.537C561.623 101.537 563.815 101.085 566.139 100.17C568.463 99.255 570.954 97.9309 573.621 96.2084L575.403 98.9428C571.939 102.786 567.943 105.983 563.394 108.535C558.845 111.075 553.809 112.356 548.275 112.356C544.81 112.356 541.6 111.775 538.634 110.623C535.668 109.471 533.299 107.716 531.517 105.359C529.735 103.001 528.849 99.9978 528.849 96.3484L528.872 96.3376Z" fill="white"/>
</svg>
